<?xml version="1.0" encoding="UTF-8" standalone="no"?>
<!-- Created with Inkscape (http://www.inkscape.org/) -->
<svg xmlns:inkscape="http://www.inkscape.org/namespaces/inkscape" xmlns:rdf="http://www.w3.org/1999/02/22-rdf-syntax-ns#" xmlns="http://www.w3.org/2000/svg" xmlns:xlink="http://www.w3.org/1999/xlink" xmlns:ns1="http://sozi.baierouge.fr" xmlns:cc="http://creativecommons.org/ns#" xmlns:dc="http://purl.org/dc/elements/1.1/" xmlns:sodipodi="http://sodipodi.sourceforge.net/DTD/sodipodi-0.dtd" id="svg4567" sodipodi:docname="Novo documento 9" viewBox="0 0 347.36 446.7" version="1.1" inkscape:version="0.48.5 r10040">
  <sodipodi:namedview id="base" bordercolor="#666666" inkscape:pageshadow="2" inkscape:window-y="-8" fit-margin-left="0" pagecolor="#ffffff" fit-margin-top="0" inkscape:window-maximized="1" inkscape:zoom="1.4" inkscape:window-x="54" inkscape:window-height="878" showgrid="false" borderopacity="1.0" inkscape:current-layer="layer1" inkscape:cx="243.52232" inkscape:cy="186.47143" fit-margin-right="0" fit-margin-bottom="0" inkscape:window-width="1538" inkscape:pageopacity="0.0" inkscape:document-units="px"/>
  <g id="layer1" inkscape:label="Camada 1" inkscape:groupmode="layer" transform="translate(-179.03 -281.87)">
    <g id="g3841" inkscape:export-ydpi="500" inkscape:export-xdpi="500" inkscape:export-filename="E:\Meus Dados\Downloads\bitmap.png" transform="matrix(1.7942 .75337 -.75337 1.7942 -1390.6 -357.97)">
      <path id="path3838" sodipodi:rx="73.214287" sodipodi:ry="73.214287" style="color:#000000;fill:none" sodipodi:type="arc" d="m1088.6 86.291c0 40.435-32.779 73.214-73.214 73.214s-73.214-32.779-73.214-73.214 32.779-73.214 73.214-73.214 73.214 32.779 73.214 73.214z" transform="matrix(1.1439 0 0 1.1439 -153.08 -12.417)" sodipodi:cy="86.290756" sodipodi:cx="1015.3571"/>
      <path id="path3039" sodipodi:rx="85" sodipodi:ry="85" style="color:#000000;fill:#999999" sodipodi:type="arc" d="m700.36 447.01c0 46.944-38.056 85-85 85s-85-38.056-85-85 38.056-85 85-85 85 38.056 85 85z" transform="matrix(.61679 0 0 .61679 628.08 -190.02)" sodipodi:cy="447.00504" sodipodi:cx="615.35712"/>
      <path id="path2996" style="block-progression:tb;text-indent:0;color:#000000;text-transform:none;fill:#000000" inkscape:connector-curvature="0" d="m1007.6-63.188c-20.144 0-36.562 15.28-36.562 34.062 0 11.597 6.2544 21.873 15.781 28.031-14.079 3.3756-26.887 10.078-37.5 19.25l-4.88-4.905 1.4688-1.5c1.1367-1.1367 1.1367-2.957 0-4.0938l-2.53-2.5312c-0.56837-0.56837-1.2895-0.84375-2.0312-0.84375-0.74175 0-1.4941 0.27538-2.0625 0.84375l-11.67 11.656c-1.1367 1.1367-1.1367 2.9883 0 4.125l2.5312 2.5312c1.1367 1.1367 2.957 1.1367 4.0938 0l1.5-1.5 4.875 4.875c-13.835 15.722-22.25 36.319-22.25 58.875 0 49.231 40.019 89.25 89.25 89.25 49.23 0 89.25-40.019 89.25-89.25 0-42.074-29.24-77.425-68.469-86.812 9.5132-6.1602 15.781-16.415 15.781-28 0-18.782-16.418-34.062-36.562-34.062zm0 6.4062c16.432 0 29.688 12.335 29.688 27.656 0 11.767-7.8355 21.767-18.906 25.781v-15.562h6.9063c0.9793 0 1.75-0.80191 1.75-1.7812v-18.594c0-0.97934-0.7707-1.75-1.75-1.75h-35.125c-0.97934 0-1.75 0.77066-1.75 1.75v18.594c0 0.97934 0.77066 1.7812 1.75 1.7812h6.9375v15.656c-11.216-3.9453-19.188-14.009-19.188-25.875 0-15.321 13.256-27.656 29.688-27.656zm0 63.875c43.475 0 78.594 35.119 78.594 78.594s-35.119 78.625-78.594 78.625-78.594-35.15-78.594-78.625 35.119-78.594 78.594-78.594zm-2.9375 6.9688v11.5h6.125v-11.5h-6.125zm2.625 17.812c-1.4589 0-5.1569 19.942-9.0312 51.531-0.17868 0.73381-0.3125 1.4924-0.3125 2.2812 0 0.01036-0.00003 0.0209 0 0.03125-0.001 0.01077 0.001 0.02048 0 0.03125 0.0334 5.297 4.3514 9.5938 9.6562 9.5938 5.3256 0 9.6562-4.3306 9.6562-9.6562 0-0.96453-0.1426-1.9025-0.4062-2.7812-0.01-0.031-0.022-0.06289-0.031-0.09375-4.2058-31.232-8.0818-50.938-9.5313-50.938zm-48.031 1-4.3438 4.3438 8.1562 8.125 4.3125-4.3125-8.125-8.1562zm96.969 0-8.1562 8.1562 4.3437 4.3125 8.125-8.125-4.3125-4.3438zm-120.12 49.75v6.125h11.5v-6.125h-11.5zm131.75 0v6.125h11.5v-6.125h-11.5zm-104.78 43.406-8.1562 8.1562 4.3438 4.3125 8.125-8.125-4.3125-4.3438zm89.344 0-4.3437 4.3438 8.1562 8.125 4.3125-4.3125-8.125-8.1562zm-47.75 19.781v11.5h6.125v-11.5h-6.125z"/>
    </g>
  </g>
  <metadata>
    <rdf:RDF>
      <cc:Work>
        <dc:format>image/svg+xml</dc:format>
        <dc:type rdf:resource="http://purl.org/dc/dcmitype/StillImage"/>
        <cc:license rdf:resource="http://creativecommons.org/licenses/publicdomain/"/>
        <dc:publisher>
          <cc:Agent rdf:about="http://openclipart.org/">
            <dc:title>Openclipart</dc:title>
          </cc:Agent>
        </dc:publisher>
      </cc:Work>
      <cc:License rdf:about="http://creativecommons.org/licenses/publicdomain/">
        <cc:permits rdf:resource="http://creativecommons.org/ns#Reproduction"/>
        <cc:permits rdf:resource="http://creativecommons.org/ns#Distribution"/>
        <cc:permits rdf:resource="http://creativecommons.org/ns#DerivativeWorks"/>
      </cc:License>
    </rdf:RDF>
  </metadata>
</svg>