<?xml version="1.0" encoding="UTF-8" standalone="no"?>
<svg xmlns:inkscape="http://www.inkscape.org/namespaces/inkscape" xmlns:rdf="http://www.w3.org/1999/02/22-rdf-syntax-ns#" xmlns="http://www.w3.org/2000/svg" xmlns:xlink="http://www.w3.org/1999/xlink" xmlns:ns1="http://sozi.baierouge.fr" xmlns:cc="http://web.resource.org/cc/" xmlns:sodipodi="http://sodipodi.sourceforge.net/DTD/sodipodi-0.dtd" xmlns:dc="http://purl.org/dc/elements/1.1/" id="svg1" sodipodi:docname="noatunpause.svg" viewBox="0 0 60 60" sodipodi:version="0.32" _SVGFile__filename="oldscale/actions/player_pause.svg" version="1.0" y="0" x="0" inkscape:version="0.40" sodipodi:docbase="/home/danny/work/flat/SVG/mono/scalable/actions">
  <sodipodi:namedview id="base" bordercolor="#666666" inkscape:pageshadow="2" inkscape:window-y="0" pagecolor="#ffffff" inkscape:window-height="698" inkscape:zoom="3.8645419" inkscape:window-x="0" borderopacity="1.0" inkscape:current-layer="svg1" inkscape:cx="56.233972" inkscape:cy="0.34622802" inkscape:window-width="1024" inkscape:pageopacity="0.0"/>
  <path id="path1711" style="stroke-linejoin:round;color:#000000;stroke:#ffffff;stroke-linecap:round;stroke-width:7.127;fill:none" transform="matrix(-3.5598e-7 -1.14 1.14 -3.5598e-7 6.2813 21.218)" d="m14.5 20.805c0 12.256-9.9471 22.203-22.203 22.203s-22.203-9.947-22.203-22.203 9.947-22.202 22.203-22.202c12.256-0.0004 22.203 9.9465 22.203 22.202z"/>
  <path id="path1710" style="stroke-linejoin:round;fill-rule:evenodd;color:#000000;stroke:#000000;stroke-linecap:round;stroke-width:2.7412;fill:#ffffff" transform="matrix(-3.5598e-7 -1.14 1.14 -3.5598e-7 6.2813 21.218)" d="m14.5 20.805c0 12.256-9.9471 22.203-22.203 22.203s-22.203-9.947-22.203-22.203 9.947-22.202 22.203-22.202c12.256-0.0004 22.203 9.9465 22.203 22.202z"/>
  <path id="rect1091" style="stroke-linejoin:round;fill-rule:evenodd;color:#000000;stroke:#000000;stroke-linecap:round;stroke-width:5;fill:#000000" transform="matrix(1.0878e-16 -1 1 5.6683e-17 0 0)" d="m-43.631 34.599h27.228c1.115 0 2.013 0.567 2.013 1.27v5.983c0 0.704-0.898 1.271-2.013 1.271h-27.228c-1.116 0-2.014-0.567-2.014-1.271v-5.983c0-0.703 0.898-1.27 2.014-1.27z"/>
  <path id="rect4296" style="stroke-linejoin:round;fill-rule:evenodd;color:#000000;stroke:#000000;stroke-linecap:round;stroke-width:5;fill:#000000" transform="matrix(1.0878e-16 -1 1 5.6683e-17 0 0)" d="m-43.631 16.877h27.228c1.115 0 2.013 0.567 2.013 1.271v5.983c0 0.704-0.898 1.27-2.013 1.27h-27.228c-1.116 0-2.014-0.566-2.014-1.27v-5.983c0-0.704 0.898-1.271 2.014-1.271z"/>
  <metadata>
    <rdf:RDF>
      <cc:Work>
        <dc:format>image/svg+xml</dc:format>
        <dc:type rdf:resource="http://purl.org/dc/dcmitype/StillImage"/>
        <cc:license rdf:resource="http://creativecommons.org/licenses/publicdomain/"/>
        <dc:publisher>
          <cc:Agent rdf:about="http://openclipart.org/">
            <dc:title>Openclipart</dc:title>
          </cc:Agent>
        </dc:publisher>
      </cc:Work>
      <cc:License rdf:about="http://creativecommons.org/licenses/publicdomain/">
        <cc:permits rdf:resource="http://creativecommons.org/ns#Reproduction"/>
        <cc:permits rdf:resource="http://creativecommons.org/ns#Distribution"/>
        <cc:permits rdf:resource="http://creativecommons.org/ns#DerivativeWorks"/>
      </cc:License>
    </rdf:RDF>
  </metadata>
</svg>